<svg width="243" height="250" viewBox="0 0 243 250" fill="none" xmlns="http://www.w3.org/2000/svg">
<g clip-path="url(#clip0_1_19)">
<path d="M232.509 92.2322L232.311 91.9688C232.168 91.7688 231.89 91.3787 231.504 90.9333C231.038 90.3612 230.509 89.7252 230.079 89.1444L229.935 88.9537C192.517 41.8343 139.613 10.6911 80.9699 1.23637C78.0649 0.745922 75.6436 0.400794 73.375 0.155571C73.0342 0.110159 72.6223 0.0647478 72.1288 0.0465832C71.1602 0.0102539 70.2999 0.0102539 69.4749 0.0102539C54.5898 0.0102539 40.6106 6.06815 30.4243 16.4493C30.3795 16.5037 30.3257 16.5491 30.2809 16.6037C24.8021 22.3619 21.1168 29.0555 19.8076 32.0073C19.1441 33.5694 18.4985 35.1044 17.8887 36.6211L17.5659 37.4022C17.4314 37.7201 17.3059 38.0379 17.1804 38.3558L16.4271 40.2177V40.3085C5.52354 68.5002 0 98.299 0 128.916C0 156.853 4.6179 184.146 13.7371 210.03C14.5531 212.455 15.4408 214.807 16.2658 216.978L16.5079 217.55C25.4657 237.259 45.1029 249.992 66.5334 249.992C67.7623 249.992 68.9455 249.947 70.0395 249.892L70.7656 249.829C71.8869 249.693 73.0163 249.547 74.1283 249.411L75.6256 249.229C134.771 241.046 188.518 210.883 226.994 164.273C227.236 164.019 227.532 163.673 227.828 163.265C229.909 160.731 232.06 157.97 234.239 155.055L234.518 154.691L234.759 154.301C240.149 145.527 243 135.4 243 124.992C243 113.112 239.378 101.787 232.518 92.2229L232.509 92.2322ZM218.234 143.175C216.288 145.772 214.378 148.207 212.549 150.432L212.145 150.913C176.942 193.7 127.741 221.428 73.5723 229.021L71.9494 229.221C70.9809 229.339 70.0037 229.457 69.0265 229.584C68.2911 229.621 67.5291 229.648 66.8204 229.648C53.3075 229.648 40.9155 221.683 35.1767 209.312C34.4504 207.405 33.6882 205.38 33.0247 203.382L32.9798 203.254C24.6228 179.55 20.3905 154.537 20.3905 128.907C20.3905 100.425 25.6091 72.7234 35.8851 46.539C36.0375 46.2029 36.1721 45.8578 36.2975 45.4945C37.1852 43.2966 38.1447 41.0169 39.1401 38.7009C45.2823 27.3662 57.0019 20.3365 69.7798 20.3365C70.3358 20.3365 70.8195 20.3365 71.295 20.3456C71.4027 20.3547 71.519 20.3637 71.6358 20.3819C73.5006 20.5817 75.5273 20.8814 78.0111 21.3083H78.0828C131.785 29.9637 180.233 58.4734 214.522 101.605C215.194 102.495 215.885 103.34 216.485 104.076L216.53 104.13C216.566 104.184 216.611 104.239 216.647 104.303C220.942 110.342 223.219 117.49 223.219 124.992C223.219 131.44 221.497 137.716 218.234 143.166V143.175Z" fill="white"/>
<path d="M150.929 75.7651V177.423C150.929 178.967 150.023 179.34 148.965 178.241L110.247 138.769L109.986 138.533C109.565 138.124 109.036 137.933 108.399 137.933C107.144 137.933 106.149 138.896 106.086 140.177V177.269C106.086 177.269 105.118 179.167 104.068 178.086L55.5043 128.651C54.4641 127.552 54.4641 125.835 55.5043 124.728L104.068 75.3291C105.118 74.239 105.978 74.5843 106.086 76.1012V113.039C106.041 114.292 107.018 115.273 108.265 115.273C108.928 115.273 109.673 114.601 109.673 114.601V114.937L148.938 74.9837C150.005 73.8756 150.92 74.2209 150.92 75.7738L150.929 75.7651Z" fill="white"/>
</g>
<defs>
<clipPath id="clip0_1_19">
<rect width="243" height="250" fill="white"/>
</clipPath>
</defs>
</svg>
